PathFileType	4	(X/Y/Z)	/Users/itak/Documents/Research/Walk-IL/dataset/trc/00088_00006.trc
DataRate	CameraRate	NumFrames	NumMarkers	Units	OrigDataRate	OrigDataStartFrame	OrigNumFrames
100.000000	100.000000	4	53	mm	100.000000	0	508
Frame#	Time	RPSI			LPSI			L3			STRN			T10			C7			CLAV			RBAK			LBAK			LSHO			LUPA			LAEL			LAOL			LWTS			LWPS			LFRA			LIFD			LHPS			LHTS			RSHO			RUPA			RAEL			RAOL			RWTS			RWPS			RFRA			RIFD			RHTS			RHPS			RBHD			LFHD			RFHD			LBHD			LHIP			RHIP			RASI			LASI			LKNE			LTHI			LANK			LTIP			LTOE			LMT1			LMT5			LHEE			RKNE			RTHI			RANK			RTIP			RTOE			RMT1			RMT5			RHEE			
		X1	Y1	Z1	X2	Y2	Z2	X3	Y3	Z3	X4	Y4	Z4	X5	Y5	Z5	X6	Y6	Z6	X7	Y7	Z7	X8	Y8	Z8	X9	Y9	Z9	X10	Y10	Z10	X11	Y11	Z11	X12	Y12	Z12	X13	Y13	Z13	X14	Y14	Z14	X15	Y15	Z15	X16	Y16	Z16	X17	Y17	Z17	X18	Y18	Z18	X19	Y19	Z19	X20	Y20	Z20	X21	Y21	Z21	X22	Y22	Z22	X23	Y23	Z23	X24	Y24	Z24	X25	Y25	Z25	X26	Y26	Z26	X27	Y27	Z27	X28	Y28	Z28	X29	Y29	Z29	X30	Y30	Z30	X31	Y31	Z31	X32	Y32	Z32	X33	Y33	Z33	X34	Y34	Z34	X35	Y35	Z35	X36	Y36	Z36	X37	Y37	Z37	X38	Y38	Z38	X39	Y39	Z39	X40	Y40	Z40	X41	Y41	Z41	X42	Y42	Z42	X43	Y43	Z43	X44	Y44	Z44	X45	Y45	Z45	X46	Y46	Z46	X47	Y47	Z47	X48	Y48	Z48	X49	Y49	Z49	X50	Y50	Z50	X51	Y51	Z51	X52	Y52	Z52	X53	Y53	Z53	

1	0	-1376.800903320312	1041.21630859375	9.593057632446289	-1387.211181640625	1035.481079101562	-166.3245697021484	-1377.944213867188	1091.055541992188	-87.39920043945312	-1127.427490234375	1300.881958007812	-78.52415466308594	-1398.751342773438	1221.128540039062	-93.73015594482422	-1349.604614257812	1489.448608398438	-95.51310729980469	-1162.716674804688	1414.88232421875	-82.55532073974609	-1411.234619140625	1349.611206054688	-20.51697731018066	-1363.323486328125	1450.902954101562	-198.3798980712891	-1257.132690429688	1462.754760742188	-264.0198364257812	-1266.313232421875	1337.893188476562	-347.8722839355469	-1239.188354492188	1123.654296875	-370.1762084960938	-1311.41162109375	1107.329833984375	-293.25439453125	-1160.558715820312	880.4672241210938	-301.0804443359375	-1207.41162109375	873.1207885742188	-370.0883483886719	-1217.632080078125	1014.783081054688	-377.662841796875	-1150.758056640625	693.6679077148438	-287.4244079589844	-1176.657470703125	791.3569946289062	-362.7147216796875	-1136.0244140625	799.2919921875	-305.6314392089844	-1296.843139648438	1459.748779296875	84.46784210205078	-1308.892333984375	1391.6630859375	151.7334442138672	-1314.77392578125	1122.200317382812	177.1996917724609	-1295.136962890625	1103.438598632812	80.39731597900391	-1149.58935546875	885.04541015625	140.2559814453125	-1218.960693359375	862.2946166992188	187.6296997070312	-1294.561889648438	1044.03515625	182.9171600341797	-1121.270141601562	699.3917846679688	124.1785430908203	-1113.821166992188	788.3798828125	140.7123413085938	-1172.187866210938	778.5448608398438	190.5740966796875	-1341.175415039062	1660.170166015625	-51.89274597167969	-1133.559692382812	1714.550048828125	-109.2095565795898	-1186.408325195312	1707.769287109375	4.912826538085938	-1291.999877929688	1674.12744140625	-179.7294311523438	-1283.727783203125	969.5183715820312	-255.7170715332031	-1307.7060546875	968.9542236328125	87.90046691894531	-1184.837890625	988.3038940429688	63.92621994018555	-1169.856811523438	983.016357421875	-203.8780822753906	-1247.825927734375	502.9558410644531	-218.7723388671875	-1267.213989257812	645.78564453125	-250.0904846191406	-1335.701782226562	51.77295303344727	-237.6284332275391	-1302.522827148438	271.4787292480469	-243.4385681152344	-1129.5419921875	46.48349761962891	-238.7131042480469	-1176.421875	46.84590530395508	-184.6668548583984	-1235.157470703125	42.55710601806641	-279.8955383300781	-1385.143798828125	49.52413558959961	-159.6243438720703	-1242.652954101562	523.3271484375	75.6529541015625	-1228.488159179688	794.2676391601562	99.18785095214844	-1318.575805664062	46.39237213134766	76.82452392578125	-1263.71484375	402.7801208496094	82.59100341796875	-1100.883056640625	44.76185989379883	48.35105133056641	-1161.231689453125	48.75194549560547	5.109548091888428	-1195.92431640625	49.18523788452148	98.33963012695312	-1363.588989257812	46.29451370239258	17.63482475280762	
2	0.01	-1376.8232421875	1041.265991210938	9.598673820495605	-1387.354858398438	1035.538940429688	-166.2588500976562	-1378.030395507812	1091.07568359375	-87.37001800537109	-1127.331665039062	1300.742553710938	-78.61731719970703	-1398.677124023438	1221.240966796875	-93.68561553955078	-1349.44775390625	1489.575805664062	-95.52307891845703	-1162.612670898438	1414.77294921875	-82.61211395263672	-1411.101440429688	1349.705688476562	-20.53841400146484	-1363.159912109375	1451.002807617188	-198.3426666259766	-1256.996459960938	1462.78662109375	-264.0531921386719	-1266.545043945312	1337.998779296875	-347.9641723632812	-1240.331665039062	1123.654663085938	-370.3346862792969	-1312.453979492188	1107.618408203125	-293.3199462890625	-1162.47216796875	880.1991577148438	-301.1814270019531	-1209.457153320312	872.9501342773438	-370.0737915039062	-1219.117797851562	1014.680786132812	-377.7798156738281	-1153.9931640625	692.890625	-287.3790588378906	-1179.059936523438	791.0513305664062	-362.8121643066406	-1139.259521484375	798.6339721679688	-305.080322265625	-1296.67431640625	1459.736206054688	84.46905517578125	-1308.777221679688	1391.697021484375	151.7199859619141	-1315.268676757812	1122.309204101562	177.3745880126953	-1295.659423828125	1103.425170898438	80.5562744140625	-1150.737670898438	884.5072021484375	140.5412902832031	-1220.194213867188	862.196533203125	188.0656890869141	-1295.262329101562	1044.121215820312	183.1644134521484	-1122.794799804688	698.994140625	124.7702865600586	-1115.1953125	787.909912109375	141.3172912597656	-1173.59912109375	778.2769775390625	191.0888519287109	-1340.859375	1660.117797851562	-51.66189956665039	-1133.27978515625	1714.540771484375	-109.2457885742188	-1186.066528320312	1707.718627929688	4.913262367248535	-1291.925048828125	1674.186279296875	-179.6413421630859	-1283.970092773438	969.552001953125	-255.7532196044922	-1307.67431640625	968.9625854492188	87.86144256591797	-1184.86767578125	988.2295532226562	63.76310729980469	-1170.042602539062	982.9835815429688	-204.0722503662109	-1248.031860351562	502.9532470703125	-218.8481903076172	-1267.379760742188	645.7265014648438	-250.1299896240234	-1335.711669921875	51.77788543701172	-237.634033203125	-1302.689697265625	271.4967346191406	-243.463134765625	-1129.558837890625	46.49316787719727	-238.7238922119141	-1176.43310546875	46.86099624633789	-184.6777038574219	-1235.16552734375	42.55171966552734	-279.9127502441406	-1385.16455078125	49.55804824829102	-159.64404296875	-1242.847045898438	523.3057250976562	75.52130889892578	-1228.488037109375	794.2667236328125	99.07511901855469	-1318.563598632812	46.40421676635742	76.80626678466797	-1263.882202148438	402.7780151367188	82.52944183349609	-1100.8779296875	44.74066543579102	48.34590148925781	-1161.223388671875	48.73653793334961	5.095030307769775	-1195.9423828125	49.1553840637207	98.32200622558594	-1363.580200195312	46.2878532409668	17.62454986572266	
3	0.02	-1376.840942382812	1041.344482421875	9.602998733520508	-1387.517578125	1035.621826171875	-166.1778411865234	-1378.105102539062	1091.1064453125	-87.33147430419922	-1127.203247070312	1300.578125	-78.74747467041016	-1398.574096679688	1221.361938476562	-93.62455749511719	-1349.249267578125	1489.716918945312	-95.52604675292969	-1162.491455078125	1414.634643554688	-82.69549560546875	-1410.931884765625	1349.808959960938	-20.55435562133789	-1362.976440429688	1451.112426757812	-198.2875671386719	-1256.858154296875	1462.819580078125	-264.0971374511719	-1266.864990234375	1338.119262695312	-348.0758361816406	-1241.74560546875	1123.650512695312	-370.522705078125	-1313.744384765625	1107.967163085938	-293.3880310058594	-1164.840454101562	879.87646484375	-301.3076171875	-1211.968994140625	872.7469482421875	-370.0679321289062	-1220.965576171875	1014.555603027344	-377.9243469238281	-1157.832641601562	692.0421752929688	-287.3415832519531	-1182.002685546875	790.6891479492188	-362.9158630371094	-1142.9365234375	797.9334106445312	-304.5813903808594	-1296.465209960938	1459.72119140625	84.46636962890625	-1308.640502929688	1391.735473632812	151.7022552490234	-1315.881103515625	1122.447631835938	177.5790557861328	-1296.276000976562	1103.411743164062	80.75956726074219	-1151.9833984375	883.9496459960938	140.9015502929688	-1221.726928710938	862.0753784179688	188.6075439453125	-1296.115234375	1044.23095703125	183.4716491699219	-1124.71484375	698.4905395507812	125.5355529785156	-1116.903686523438	787.3408203125	142.0572967529297	-1175.37060546875	777.9627685546875	191.7550659179688	-1340.465942382812	1660.074584960938	-51.37393188476562	-1132.945190429688	1714.515380859375	-109.2952117919922	-1185.630004882812	1707.650390625	4.9158935546875	-1291.81884765625	1674.265380859375	-179.5276489257812	-1284.24169921875	969.5881958007812	-255.7905883789062	-1307.622192382812	968.9808959960938	87.81301879882812	-1184.865112304688	988.1564331054688	63.54507446289062	-1170.255493164062	982.941650390625	-204.29248046875	-1248.303344726562	502.9455871582031	-218.9428100585938	-1267.658325195312	645.6709594726562	-250.2124786376953	-1335.725830078125	51.78408050537109	-237.6424865722656	-1302.904418945312	271.5191040039062	-243.4973907470703	-1129.578125	46.50494003295898	-238.7389526367188	-1176.4482421875	46.87977981567383	-184.6934814453125	-1235.173828125	42.54354095458984	-279.9337463378906	-1385.185424804688	49.58884811401367	-159.6622314453125	-1243.1611328125	523.2720336914062	75.37368774414062	-1228.490966796875	794.2634887695312	98.95096588134766	-1318.553955078125	46.41575622558594	76.79065704345703	-1264.1591796875	402.7795104980469	82.46479797363281	-1100.870239257812	44.71465301513672	48.34257888793945	-1161.216186523438	48.72040176391602	5.082292556762695	-1195.961059570312	49.11761474609375	98.30829620361328	-1363.57177734375	46.27854537963867	17.61706161499023	
4	0.03	-1376.8486328125	1041.455322265625	9.604283332824707	-1387.683715820312	1035.731567382812	-166.0867767333984	-1378.151000976562	1091.148681640625	-87.28463745117188	-1127.043212890625	1300.400756835938	-78.91539764404297	-1398.440795898438	1221.477661132812	-93.54644775390625	-1349.015014648438	1489.856323242188	-95.51701354980469	-1162.361328125	1414.47265625	-82.80765533447266	-1410.731811523438	1349.909423828125	-20.55918121337891	-1362.79150390625	1451.219970703125	-198.2128753662109	-1256.738647460938	1462.848876953125	-264.1506042480469	-1267.275146484375	1338.243896484375	-348.2007141113281	-1243.363403320312	1123.64013671875	-370.7276916503906	-1315.21923828125	1108.354614257812	-293.4465637207031	-1167.536865234375	879.5219116210938	-301.4533081054688	-1214.814208984375	872.52587890625	-370.0755310058594	-1223.088134765625	1014.415710449219	-378.088623046875	-1162.017211914062	691.2160034179688	-287.3073120117188	-1185.327514648438	790.2959594726562	-363.0130615234375	-1146.794555664062	797.2495727539062	-304.1995849609375	-1296.223510742188	1459.705444335938	84.45798492431641	-1308.48974609375	1391.775634765625	151.6804656982422	-1316.579223632812	1122.61083984375	177.7965240478516	-1296.94091796875	1103.401611328125	80.9979248046875	-1153.239135742188	883.4278564453125	141.3333435058594	-1223.485107421875	861.9385375976562	189.2322540283203	-1297.072631835938	1044.361694335938	183.8224029541016	-1126.949584960938	697.9031982421875	126.4519500732422	-1118.868774414062	786.7039794921875	142.8975830078125	-1177.419921875	777.6219482421875	192.5455017089844	-1340.012451171875	1660.052856445312	-51.0416259765625	-1132.57373046875	1714.468872070312	-109.3595428466797	-1185.110107421875	1707.565185546875	4.920882225036621	-1291.679077148438	1674.363525390625	-179.3901214599609	-1284.521850585938	969.6244506835938	-255.8270568847656	-1307.54833984375	969.0115356445312	87.75689697265625	-1184.822875976562	988.086181640625	63.28179550170898	-1170.480834960938	982.8906860351562	-204.5207672119141	-1248.6357421875	502.9313354492188	-219.051513671875	-1268.065063476562	645.6295166015625	-250.3473052978516	-1335.743774414062	51.79067993164062	-237.6537780761719	-1303.160522460938	271.544677734375	-243.5421905517578	-1129.598510742188	46.51810836791992	-238.7580413818359	-1176.467407226562	46.90129089355469	-184.7144470214844	-1235.18212890625	42.53226852416992	-279.9573669433594	-1385.205200195312	49.61361312866211	-159.6780548095703	-1243.609497070312	523.226806640625	75.22753143310547	-1228.498046875	794.2579956054688	98.82631683349609	-1318.548828125	46.42477035522461	76.78048706054688	-1264.566284179688	402.7881469726562	82.40472412109375	-1100.860107421875	44.68567276000977	48.34266662597656	-1161.211303710938	48.70568084716797	5.074416637420654	-1195.977905273438	49.07366180419922	98.3021240234375	-1363.56494140625	46.26661682128906	17.61437797546387	
